<?xml version="1.0" encoding="utf-8"?>
<!-- Generator: Adobe Illustrator 18.1.1, SVG Export Plug-In . SVG Version: 6.00 Build 0)  -->
<!DOCTYPE svg PUBLIC "-//W3C//DTD SVG 1.1//EN" "http://www.w3.org/Graphics/SVG/1.1/DTD/svg11.dtd">
<svg version="1.1" id="_x37_x9.5" xmlns="http://www.w3.org/2000/svg" xmlns:xlink="http://www.w3.org/1999/xlink" x="0px" y="0px"
	 viewBox="0 0 434.7 102.7" enable-background="new 0 0 434.7 102.7" xml:space="preserve">
<g id="Logos_x2F_Deisgn_Elements">
	<g>
		<g>
			<path fill="#8D2989" d="M8.7,50.2V50c0-16.2,13.3-29.2,30.6-29.2s30.5,12.8,30.5,29V50c0,16.2-13.3,29.2-30.6,29.2
				C21.8,79.2,8.7,66.4,8.7,50.2z M50.9,50.2V50c0-6.6-4.6-12.6-11.8-12.6c-7.1,0-11.6,5.9-11.6,12.5V50c0,6.6,4.6,12.6,11.8,12.6
				C46.4,62.7,50.9,56.8,50.9,50.2z"/>
			<path fill="#228FBF" d="M74.8,22.1h27.3c9.9,0,16.2,2.5,20.1,6.4c3.4,3.4,5.1,7.5,5.1,13.3v0.2c0,8.2-4.2,13.8-11,17.1l13,19
				h-21.3L97.5,62h-0.2h-3.8v16H74.8V22.1z M101.6,48.7c4.5,0,7.2-2,7.2-5.4v-0.2c0-3.6-2.8-5.4-7.1-5.4h-8.2v11H101.6z"/>
			<path fill="#8AC240" d="M132,22.1h18.7v40H177v16h-45V22.1z"/>
			<path fill="#ED8F22" d="M200.6,21.7h18.5L242.7,78h-20.3l-3-7.5h-19.6L197,78h-20L200.6,21.7z M214.8,57.2l-5.1-13.6l-5.1,13.6
				H214.8z"/>
			<path fill="#EF4336" d="M245,22.1h17.5l19.9,24.7V22.1H301v56h-16.6l-20.8-25.8V78H245V22.1z"/>
			<path fill="#8D2989" d="M307.3,22.1h21.4c22.2,0,33.3,11,33.3,27.5v0.2c0,16.5-11.4,28.3-34,28.3h-20.8V22.1z M329.2,61.7
				c8.6,0,14.1-3.5,14.1-11.6V50c0-8.1-5.5-11.6-14.1-11.6H326v23.3H329.2z"/>
			<path fill="#F9A01F" d="M365.9,50.2V50c0-16.2,13.3-29.2,30.6-29.2c17.3,0,30.5,12.8,30.5,29V50c0,16.2-13.3,29.2-30.6,29.2
				S365.9,66.4,365.9,50.2z"/>
		</g>
		<g>
			<path fill="#FFFFFF" d="M7.7,19.7v-1.1l1.4-1.4c3.5-3.3,5-5,5-7.1c0-1.4-0.7-2.6-2.7-2.6c-1.2,0-2.3,0.6-2.9,1.1L8,7.3
				c0.9-0.8,2.3-1.4,3.8-1.4c2.9,0,4.1,2,4.1,3.9c0,2.5-1.8,4.5-4.7,7.3l-1.1,1v0h6.1v1.5H7.7z"/>
			<path fill="#FFFFFF" d="M27.4,12.8c0,4.6-1.7,7.1-4.7,7.1c-2.6,0-4.4-2.5-4.5-7c0-4.5,2-7,4.7-7C25.7,5.9,27.4,8.4,27.4,12.8z
				 M20,13c0,3.5,1.1,5.5,2.8,5.5c1.9,0,2.8-2.2,2.8-5.6c0-3.3-0.9-5.5-2.8-5.5C21.2,7.3,20,9.3,20,13z"/>
			<path fill="#FFFFFF" d="M33,7.8L33,7.8l-2.4,1.3l-0.4-1.4l3-1.6h1.6v13.5H33V7.8z"/>
			<path fill="#FFFFFF" d="M47.5,7.4c-0.4,0-0.9,0-1.4,0.1c-2.9,0.5-4.4,2.6-4.7,4.8h0.1c0.6-0.9,1.8-1.6,3.3-1.6
				c2.4,0,4.1,1.7,4.1,4.4c0,2.5-1.7,4.8-4.5,4.8c-2.9,0-4.8-2.3-4.8-5.8c0-2.7,1-4.8,2.3-6.1c1.1-1.1,2.6-1.8,4.3-2
				c0.5-0.1,1-0.1,1.3-0.1V7.4z M44.3,18.5c1.6,0,2.6-1.3,2.6-3.3c0-1.9-1.1-3.1-2.8-3.1c-1.1,0-2.1,0.7-2.6,1.7
				c-0.1,0.2-0.2,0.5-0.2,0.8C41.4,16.8,42.4,18.5,44.3,18.5L44.3,18.5z"/>
			<path fill="#FFFFFF" d="M118.7,15.3l-1.5,4.4h-1.9l4.8-14h2.2l4.8,14h-1.9l-1.5-4.4H118.7z M123.3,13.8l-1.4-4
				c-0.3-0.9-0.5-1.8-0.7-2.6h0c-0.2,0.8-0.4,1.7-0.7,2.5l-1.4,4.1H123.3z"/>
			<path fill="#FFFFFF" d="M129.2,19.7v-14h2l4.5,7.1c1,1.6,1.9,3.1,2.5,4.6l0,0c-0.2-1.9-0.2-3.6-0.2-5.8V5.6h1.7v14h-1.8l-4.5-7.1
				c-1-1.6-1.9-3.2-2.6-4.7l-0.1,0c0.1,1.8,0.1,3.5,0.1,5.8v6H129.2z"/>
			<path fill="#FFFFFF" d="M142.9,19.7v-14h2l4.5,7.1c1,1.6,1.9,3.1,2.5,4.6l0,0c-0.2-1.9-0.2-3.6-0.2-5.8V5.6h1.7v14h-1.8l-4.5-7.1
				c-1-1.6-1.9-3.2-2.6-4.7l-0.1,0c0.1,1.8,0.1,3.5,0.1,5.8v6H142.9z"/>
			<path fill="#FFFFFF" d="M158.4,5.6v8.3c0,3.1,1.4,4.5,3.3,4.5c2.1,0,3.4-1.4,3.4-4.5V5.6h1.8v8.2c0,4.3-2.3,6.1-5.3,6.1
				c-2.9,0-5-1.6-5-6V5.6H158.4z"/>
			<path fill="#FFFFFF" d="M171.7,15.3l-1.5,4.4h-1.9l4.8-14h2.2l4.8,14h-1.9l-1.5-4.4H171.7z M176.3,13.8l-1.4-4
				c-0.3-0.9-0.5-1.8-0.7-2.6h0c-0.2,0.8-0.4,1.7-0.7,2.5l-1.4,4.1H176.3z"/>
			<path fill="#FFFFFF" d="M182.2,5.6h1.8v12.5h6v1.5h-7.8V5.6z"/>
			<path fill="#FFFFFF" d="M206.3,19.2c-0.7,0.3-2,0.7-3.7,0.7c-4,0-6.9-2.5-6.9-7.1c0-4.4,3-7.4,7.3-7.4c1.8,0,2.9,0.4,3.3,0.6
				l-0.4,1.5c-0.7-0.3-1.7-0.6-2.8-0.6c-3.3,0-5.5,2.1-5.5,5.8c0,3.4,2,5.6,5.4,5.6c1.1,0,2.2-0.2,3-0.6L206.3,19.2z"/>
			<path fill="#FFFFFF" d="M220.1,12.5c0,4.8-2.9,7.4-6.5,7.4c-3.7,0-6.3-2.9-6.3-7.1c0-4.5,2.8-7.4,6.5-7.4
				C217.6,5.4,220.1,8.3,220.1,12.5z M209.2,12.7c0,3,1.6,5.7,4.5,5.7c2.9,0,4.5-2.6,4.5-5.8c0-2.8-1.5-5.7-4.5-5.7
				C210.7,6.9,209.2,9.7,209.2,12.7z"/>
			<path fill="#FFFFFF" d="M222.5,19.7v-14h2l4.5,7.1c1,1.6,1.9,3.1,2.5,4.6l0,0c-0.2-1.9-0.2-3.6-0.2-5.8V5.6h1.7v14h-1.8l-4.5-7.1
				c-1-1.6-1.9-3.2-2.6-4.7l-0.1,0c0.1,1.8,0.1,3.5,0.1,5.8v6H222.5z"/>
			<path fill="#FFFFFF" d="M236.2,5.6h7.6v1.5H238v4.7h5.3v1.5H238v6.4h-1.8V5.6z"/>
			<path fill="#FFFFFF" d="M253.6,13.1h-5.5v5.1h6.1v1.5h-7.9v-14h7.6v1.5h-5.8v4.4h5.5V13.1z"/>
			<path fill="#FFFFFF" d="M256.6,5.8c0.9-0.2,2.2-0.3,3.5-0.3c1.9,0,3.2,0.4,4.1,1.1c0.7,0.6,1.1,1.6,1.1,2.7
				c0,1.9-1.2,3.1-2.6,3.6V13c1.1,0.4,1.7,1.4,2.1,2.8c0.5,2,0.8,3.3,1.1,3.9h-1.9c-0.2-0.4-0.5-1.6-0.9-3.4
				c-0.4-1.9-1.2-2.7-2.8-2.7h-1.7v6.1h-1.8V5.8z M258.4,12.2h1.9c1.9,0,3.2-1.1,3.2-2.7c0-1.8-1.3-2.6-3.2-2.6
				c-0.9,0-1.5,0.1-1.8,0.2V12.2z"/>
			<path fill="#FFFFFF" d="M275.1,13.1h-5.5v5.1h6.1v1.5h-7.9v-14h7.6v1.5h-5.8v4.4h5.5V13.1z"/>
			<path fill="#FFFFFF" d="M278.1,19.7v-14h2l4.5,7.1c1,1.6,1.9,3.1,2.5,4.6l0,0c-0.2-1.9-0.2-3.6-0.2-5.8V5.6h1.7v14h-1.8l-4.5-7.1
				c-1-1.6-1.9-3.2-2.6-4.7l-0.1,0c0.1,1.8,0.1,3.5,0.1,5.8v6H278.1z"/>
			<path fill="#FFFFFF" d="M301.6,19.2c-0.7,0.3-2,0.7-3.7,0.7c-4,0-6.9-2.5-6.9-7.1c0-4.4,3-7.4,7.3-7.4c1.8,0,2.9,0.4,3.3,0.6
				l-0.4,1.5c-0.7-0.3-1.7-0.6-2.8-0.6c-3.3,0-5.5,2.1-5.5,5.8c0,3.4,2,5.6,5.4,5.6c1.1,0,2.2-0.2,3-0.6L301.6,19.2z"/>
			<path fill="#FFFFFF" d="M311.2,13.1h-5.5v5.1h6.1v1.5h-7.9v-14h7.6v1.5h-5.8v4.4h5.5V13.1z"/>
		</g>
		<g>
			<path fill="#EF4336" d="M63.9,20l-6.1-8v8h-4.3V4.5h3.8l5.8,7.7V4.5h4.3v14.9V20H63.9L63.9,20z"/>
			<g>
				<path fill="#EF4336" d="M76.4,20.2c-2.3,0-4.2-0.9-5.7-2.3l0,0c-1.4-1.4-2.3-3.4-2.3-5.6l0,0l0,0c0-2.2,0.8-4.2,2.2-5.6l0,0
					c1.4-1.5,3.4-2.4,5.8-2.3l0,0c2.8,0,4.7,1,6,2.4l0,0L83,7l-2.7,3.2l-0.4-0.4c-1.1-1-2-1.5-3.3-1.5l0,0c-2.1,0-3.6,1.7-3.6,3.9
					l0,0l0,0c0,2.2,1.5,3.9,3.6,3.9l0,0c1.5,0,2.3-0.5,3.4-1.5l0,0l0.4-0.4l2.4,2.4l0,0l0.4,0.4l-0.4,0.4
					C81.2,19.1,79.4,20.2,76.4,20.2L76.4,20.2C76.5,20.2,76.5,20.2,76.4,20.2L76.4,20.2z"/>
			</g>
			<path fill="#EF4336" d="M84.1,20V4.5h4.3V16h7.1v3.4V20H84.1L84.1,20z"/>
			<g>
				<path fill="#EF4336" d="M105.5,20l-3.1-4.6h-1.6V20h-4.3V4.5h7.1c1.8,0,3.3,0.5,4.3,1.4l0,0c1.1,0.9,1.6,2.3,1.6,3.9l0,0l0,0
					c0,2.2-1.1,3.9-2.8,4.7l0,0l3.7,5.4H105.5L105.5,20z M100.8,11.5h2.6c0.7,0,1.1-0.2,1.4-0.4l0,0c0.3-0.2,0.4-0.6,0.4-1l0,0v0
					c0-0.5-0.2-0.8-0.4-1.1l0,0c-0.3-0.2-0.8-0.4-1.5-0.4l0,0h-2.6V11.5L100.8,11.5z"/>
			</g>
		</g>
		<g>
			<path fill="#FFFFFF" d="M126.1,87.9v-0.5c0-4.9,1.5-7.3,3.6-7.3c2.1,0,3.6,2.5,3.6,7.3v0.5c0,4.9-1.5,7.3-3.6,7.3
				C127.7,95.3,126.1,92.8,126.1,87.9z M132,87.9v-0.5c0-4.2-1-6.1-2.2-6.1c-1.3,0-2.2,1.9-2.2,6.1v0.5c0,4.2,1,6.1,2.2,6.1
				C131,94,132,92.1,132,87.9z"/>
			<path fill="#FFFFFF" d="M135.2,80.3h2c2.6,0,4.3,1.5,4.3,4.5v0.1c0,2-0.9,3.4-2.3,4.1l2.6,6.2h-1.5l-2.4-5.8c-0.2,0-0.4,0-0.6,0
				h-0.7v5.7h-1.4V80.3z M137.3,88.1c1.8,0,2.9-1.1,2.9-3.3v-0.1c0-2.2-1.2-3.2-3-3.2h-0.6v6.5H137.3z"/>
			<path fill="#FFFFFF" d="M145.6,80.3h1.5l3.1,14.8h-1.4l-0.8-3.8h-3.4l-0.8,3.8h-1.4L145.6,80.3z M147.8,90l-1.5-7.4l-1.5,7.4
				H147.8z"/>
			<path fill="#FFFFFF" d="M151.7,80.3h1.4l4.1,11.1V80.3h1.3v14.8h-1.3L153,83.7v11.4h-1.3V80.3z"/>
			<path fill="#FFFFFF" d="M160.2,87.9v-0.4c0-4.8,2.1-7.3,4.6-7.3c0.8,0,1.3,0.2,1.9,0.5v1.5c-0.6-0.4-1.2-0.6-1.8-0.6
				c-1.7,0-3.2,2-3.2,6v0.5c0,4.2,1.5,6,3.2,6c0.3,0,0.5,0,0.8-0.1v-5.3h-2v-1.2h3.2v7.4c-0.8,0.4-1.4,0.5-2.2,0.5
				C162.3,95.2,160.2,92.9,160.2,87.9z"/>
			<path fill="#FFFFFF" d="M169,80.3h5.2v1.3h-3.8V87h3.5v1.3h-3.5v5.5h3.9v1.3H169V80.3z"/>
			<path fill="#FFFFFF" d="M178.9,87.9v-0.4c0-5,1.9-7.3,4.1-7.3c0.7,0,1,0.1,1.5,0.3V82c-0.5-0.3-1-0.5-1.4-0.5
				c-1.5,0-2.7,1.9-2.7,5.9v0.4c0,4.1,1.2,5.9,2.7,5.9c0.5,0,1-0.1,1.5-0.5v1.4c-0.5,0.3-1,0.4-1.6,0.4
				C180.7,95.2,178.9,92.9,178.9,87.9z"/>
			<path fill="#FFFFFF" d="M185.4,87.9v-0.5c0-4.9,1.5-7.3,3.6-7.3s3.6,2.5,3.6,7.3v0.5c0,4.9-1.5,7.3-3.6,7.3
				S185.4,92.8,185.4,87.9z M191.3,87.9v-0.5c0-4.2-1-6.1-2.2-6.1c-1.3,0-2.2,1.9-2.2,6.1v0.5c0,4.2,1,6.1,2.2,6.1
				C190.3,94,191.3,92.1,191.3,87.9z"/>
			<path fill="#FFFFFF" d="M194.4,91.2V80.3h1.4v10.9c0,1.8,0.8,2.8,2,2.8c1.2,0,2-1,2-2.8V80.3h1.4v10.9c0,2.6-1.3,4.1-3.3,4.1
				C195.7,95.3,194.4,93.8,194.4,91.2z"/>
			<path fill="#FFFFFF" d="M203.1,80.3h1.4l4.1,11.1V80.3h1.3v14.8h-1.3l-4.2-11.4v11.4h-1.3V80.3z"/>
			<path fill="#FFFFFF" d="M213.5,81.6h-2.2v-1.3h5.9v1.3h-2.3v13.5h-1.4V81.6z"/>
			<path fill="#FFFFFF" d="M220.3,88.9l-3-8.6h1.5l2.2,6.8l2.3-6.8h1.4l-3,8.6v6.2h-1.4V88.9z"/>
			<path fill="#FFFFFF" d="M228.9,87.9v-0.4c0-5,1.9-7.3,4.1-7.3c0.7,0,1,0.1,1.5,0.3V82c-0.5-0.3-1-0.5-1.4-0.5
				c-1.5,0-2.7,1.9-2.7,5.9v0.4c0,4.1,1.2,5.9,2.7,5.9c0.5,0,1-0.1,1.5-0.5v1.4c-0.5,0.3-1,0.4-1.6,0.4
				C230.7,95.2,228.9,92.9,228.9,87.9z"/>
			<path fill="#FFFFFF" d="M235.4,87.9v-0.5c0-4.9,1.5-7.3,3.6-7.3s3.6,2.5,3.6,7.3v0.5c0,4.9-1.5,7.3-3.6,7.3
				S235.4,92.8,235.4,87.9z M241.2,87.9v-0.5c0-4.2-1-6.1-2.2-6.1c-1.3,0-2.2,1.9-2.2,6.1v0.5c0,4.2,1,6.1,2.2,6.1
				C240.3,94,241.2,92.1,241.2,87.9z"/>
			<path fill="#FFFFFF" d="M244.4,80.3h1.4l4.1,11.1V80.3h1.3v14.8h-1.3l-4.2-11.4v11.4h-1.3V80.3z"/>
			<path fill="#FFFFFF" d="M252.7,80.3h1.4l2.3,12.2l2.3-12.2h1.4l-3,14.9h-1.4L252.7,80.3z"/>
			<path fill="#FFFFFF" d="M261.5,80.3h5.2v1.3h-3.8V87h3.5v1.3h-3.5v5.5h3.9v1.3h-5.3V80.3z"/>
			<path fill="#FFFFFF" d="M268.4,80.3h1.4l4.1,11.1V80.3h1.3v14.8h-1.3l-4.2-11.4v11.4h-1.3V80.3z"/>
			<path fill="#FFFFFF" d="M278.8,81.6h-2.2v-1.3h5.9v1.3h-2.3v13.5h-1.4V81.6z"/>
			<path fill="#FFFFFF" d="M283.8,80.3h1.4v14.8h-1.4V80.3z"/>
			<path fill="#FFFFFF" d="M287.1,87.9v-0.5c0-4.9,1.5-7.3,3.6-7.3s3.6,2.5,3.6,7.3v0.5c0,4.9-1.5,7.3-3.6,7.3
				S287.1,92.8,287.1,87.9z M293,87.9v-0.5c0-4.2-1-6.1-2.2-6.1c-1.3,0-2.2,1.9-2.2,6.1v0.5c0,4.2,1,6.1,2.2,6.1
				C292,94,293,92.1,293,87.9z"/>
			<path fill="#FFFFFF" d="M296.2,80.3h1.4l4.1,11.1V80.3h1.3v14.8h-1.3l-4.2-11.4v11.4h-1.3V80.3z"/>
			<path fill="#FFFFFF" d="M308.1,87.9v-0.4c0-5,1.9-7.3,4.1-7.3c0.7,0,1,0.1,1.5,0.3V82c-0.5-0.3-1-0.5-1.4-0.5
				c-1.5,0-2.7,1.9-2.7,5.9v0.4c0,4.1,1.2,5.9,2.7,5.9c0.5,0,1-0.1,1.5-0.5v1.4c-0.5,0.3-1,0.4-1.6,0.4
				C309.9,95.2,308.1,92.9,308.1,87.9z"/>
			<path fill="#FFFFFF" d="M315.5,80.3h5.2v1.3h-3.8V87h3.5v1.3h-3.5v5.5h3.9v1.3h-5.3V80.3z"/>
			<path fill="#FFFFFF" d="M322.4,80.3h1.4l4.1,11.1V80.3h1.3v14.8h-1.3l-4.2-11.4v11.4h-1.3V80.3z"/>
			<path fill="#FFFFFF" d="M332.7,81.6h-2.2v-1.3h5.9v1.3h-2.3v13.5h-1.4V81.6z"/>
			<path fill="#FFFFFF" d="M337.7,80.3h5.2v1.3h-3.8V87h3.5v1.3h-3.5v5.5h3.9v1.3h-5.3V80.3z"/>
			<path fill="#FFFFFF" d="M344.6,80.3h2c2.6,0,4.3,1.5,4.3,4.5v0.1c0,2-0.9,3.4-2.3,4.1l2.6,6.2h-1.5l-2.4-5.8c-0.2,0-0.4,0-0.6,0
				H346v5.7h-1.4V80.3z M346.7,88.1c1.8,0,2.9-1.1,2.9-3.3v-0.1c0-2.2-1.2-3.2-3-3.2H346v6.5H346.7z"/>
			<path fill="#EF4336" d="M357,78.9h1.1v18.3H357V78.9z"/>
			<path fill="#FFFFFF" d="M363.7,95v-1.3c0.2,0.1,0.9,0.2,1.1,0.2c0.8,0,1.5-0.5,1.5-1.7V80.3h1.4v12c0,1.9-1.1,2.9-2.7,2.9
				C364.6,95.2,364,95.1,363.7,95z"/>
			<path fill="#FFFFFF" d="M369.6,91.2V80.3h1.4v10.9c0,1.8,0.8,2.8,2,2.8c1.2,0,2-1,2-2.8V80.3h1.4v10.9c0,2.6-1.3,4.1-3.3,4.1
				C370.9,95.3,369.6,93.8,369.6,91.2z"/>
			<path fill="#FFFFFF" d="M378.3,80.3h1.4v13.5h3.4v1.3h-4.8V80.3z"/>
			<path fill="#FFFFFF" d="M385.5,88.9l-3-8.6h1.5l2.2,6.8l2.3-6.8h1.4l-3,8.6v6.2h-1.4V88.9z"/>
			<path fill="#FFFFFF" d="M394,94.1l3.3-6.9c0.7-1.4,1-2.4,1-3.5c0-1.3-0.7-2.1-1.9-2.1c-0.8,0-1.5,0.3-2.1,0.7v-1.4
				c0.6-0.4,1.4-0.6,2.3-0.6c1.8,0,3.1,1.3,3.1,3.2v0.1c0,1.3-0.4,2.4-1.2,4.1l-2.9,6.1h4.2v1.4H394V94.1z"/>
			<path fill="#FFFFFF" d="M400.8,94.8v-1.3c0.6,0.3,1.1,0.4,1.9,0.4c1.2,0,2.4-1.2,2.4-3.2v-0.1c0-1.9-1.1-2.7-3-2.9v-0.9l2.8-5.1
				h-4v-1.4h5.5v1.1l-2.9,5.3c1.6,0.4,3,1.4,3,3.8v0.2c0,2.8-1.7,4.5-3.7,4.5C401.9,95.2,401.4,95.1,400.8,94.8z"/>
			<path fill="#FFFFFF" d="M407.9,88.1h4.4v1.3h-4.4V88.1z"/>
			<path fill="#FFFFFF" d="M413.1,94.1l3.3-6.9c0.7-1.4,1-2.4,1-3.5c0-1.3-0.7-2.1-1.9-2.1c-0.8,0-1.5,0.3-2.1,0.7v-1.4
				c0.6-0.4,1.4-0.6,2.3-0.6c1.8,0,3.1,1.3,3.1,3.2v0.1c0,1.3-0.4,2.4-1.2,4.1l-2.9,6.1h4.2v1.4h-5.7V94.1z"/>
			<path fill="#FFFFFF" d="M420.2,88.8v-0.6c0-5.9,1.6-8,3.8-8c0.7,0,1.1,0.1,1.5,0.3v1.4c-0.4-0.2-0.9-0.4-1.5-0.4
				c-1.5,0-2.4,1.8-2.5,5.3c0.6-0.5,1.2-1,2-1c1.5,0,2.8,1.2,2.8,4.4v0.2c0,2.9-1.4,4.9-3.1,4.9C421.6,95.3,420.2,93.8,420.2,88.8z
				 M425.1,90.5v-0.2c0-2.3-0.8-3.2-1.8-3.2c-0.7,0-1.2,0.4-1.8,0.9v1.3c0,3.7,0.9,4.8,1.8,4.8C424.4,94.1,425.1,92.5,425.1,90.5z"
				/>
		</g>
	</g>
</g>
<g>
</g>
<g>
</g>
<g>
</g>
<g>
</g>
<g>
</g>
<g>
</g>
</svg>
