<?xml version="1.0" encoding="utf-8"?>
<!-- Generator: Adobe Illustrator 18.1.1, SVG Export Plug-In . SVG Version: 6.00 Build 0)  -->
<!DOCTYPE svg PUBLIC "-//W3C//DTD SVG 1.1 Tiny//EN" "http://www.w3.org/Graphics/SVG/1.1/DTD/svg11-tiny.dtd">
<svg version="1.1" baseProfile="tiny" id="Layer_1" xmlns="http://www.w3.org/2000/svg" xmlns:xlink="http://www.w3.org/1999/xlink"
	 x="0px" y="0px" viewBox="0 90 612 612" xml:space="preserve">
<g>
	<path fill="#7E8083" d="M470.8,254.8c-11.8,0-23.5-11.8-23.5-23.5v-47.1c0-11.8,11.8-23.5,23.5-23.5h47.1
		c11.8,0,23.5,11.8,23.5,23.5v47.1c0,11.8-11.8,23.5-23.5,23.5L470.8,254.8L470.8,254.8z"/>
	<path fill="#7E8083" d="M306,307.7c-17.7,0-32.4,5.9-47.1,11.8c2.9,0,8.8-2.9,14.7-2.9c26.5,0,44.1,20.6,44.1,44.1
		c0,26.5-20.6,44.1-44.1,44.1c-26.5,0-44.1-20.6-44.1-44.1c0-5.9,0-8.8,2.9-14.7c-8.8,14.7-11.8,29.4-11.8,47.1
		c0,50,41.2,91.2,88.3,91.2c50,0,91.2-41.2,91.2-91.2C397.2,346,356,307.7,306,307.7L306,307.7z"/>
	<path fill="#7E8083" d="M306,254.8c79.4,0,141.2,61.8,141.2,141.2S385.4,537.2,306,537.2c-76.5,0-141.2-61.8-141.2-141.2
		C164.8,319.5,226.6,254.8,306,254.8 M306,207.7c-103,0-188.3,85.3-188.3,188.3S203,584.3,306,584.3S494.3,499,494.3,396
		S409,207.7,306,207.7L306,207.7z"/>
	<path fill="#7E8083" d="M497.3,90H114.7C50,90,0,140,0,204.8v382.5C0,652,50,702,114.8,702h382.5C562,702,612,652,612,587.2V204.8
		C612,140,562,90,497.3,90L497.3,90z M564.9,301.8h-153c23.5,26.5,35.3,58.8,35.3,94.2c0,79.4-61.8,141.2-141.2,141.2
		c-76.5,0-141.2-61.8-141.2-141.2c0-35.3,14.7-67.7,35.3-94.2h-153v-97.1c0-38.2,29.4-67.7,67.7-67.7h382.5
		c38.2,0,67.7,29.4,67.7,67.7L564.9,301.8L564.9,301.8z"/>
</g>
</svg>
