<?xml version="1.0" encoding="utf-8"?>
<!-- Generator: Adobe Illustrator 18.1.1, SVG Export Plug-In . SVG Version: 6.00 Build 0)  -->
<!DOCTYPE svg PUBLIC "-//W3C//DTD SVG 1.1//EN" "http://www.w3.org/Graphics/SVG/1.1/DTD/svg11.dtd">
<svg version="1.1" id="Layer_1" xmlns="http://www.w3.org/2000/svg" xmlns:xlink="http://www.w3.org/1999/xlink" x="0px" y="0px"
	 viewBox="-232.2 45 161.1 139.4" enable-background="new -232.2 45 161.1 139.4" xml:space="preserve">
<g>
	<path fill="#A59A00" d="M-126.1,103.2c7.6,0,13.8-6.2,13.8-13.8c0-7.6-6.2-13.8-13.8-13.8c-7.6,0-13.8,6.2-13.8,13.8
		C-139.9,97-133.7,103.2-126.1,103.2L-126.1,103.2z M-126.1,103.2"/>
	<path fill="#A59A00" d="M-202.1,143.3c-1.1,0.3-2.2,0.5-3.4,0.5c-1.1,0-2.2-0.1-3.2-0.4c-2.4-0.7-4.5-2-6.1-3.9h-4.1
		c-1.4,0-2.5-1.1-2.5-2.5v-8.5c-2.1-3.8-1.9-8.2,0-11.8v-6c-1.9-3.6-2.1-8,0-11.8V58.4c0-1.4,1.1-2.5,2.5-2.5h59.6
		c1.2-0.8,2.5-1.4,3.9-1.8c1.1-0.3,2.3-0.5,3.5-0.5c2.1,0,4.1,0.5,6,1.4c0.3-4.1,2.4-7.6,5.5-9.9h-78.5c-7.4,0-13.3,6-13.3,13.4
		v78.5c0,7.4,6,13.3,13.3,13.3h21.6C-199.6,148.6-201.4,146.2-202.1,143.3L-202.1,143.3z M-202.1,143.3"/>
	<path fill="#A59A00" d="M-84.5,45h-27.3c3.1,2.3,5.2,5.9,5.5,9.9c1.8-0.9,3.9-1.4,6-1.4c2.7,0,5.2,0.9,7.3,2.3h8.5
		c1.4,0,2.5,1.1,2.5,2.5V72c1.5,3,1.9,6.4,1.1,9.6c-0.3,0.9-0.6,1.8-1.1,2.7v10.1c1.9,3.7,2,8.2,0,12.2v30.3c0,1.4-1.1,2.5-2.5,2.5
		h-70.7c-1.6,1.8-3.7,3.2-6.1,3.9c-1.1,0.3-2.1,0.4-3.2,0.4c-1.2,0-2.3-0.2-3.4-0.5c-0.1,0.5-0.3,1.1-0.5,1.6
		c-1.2,2.9-3.4,5.3-6.3,6.6v7.2c-8.5,0.9-15.1,8-15.1,16.8v5c0,2.2,1.8,4.1,4.1,4.1h68.4c2.2,0,4.1-1.8,4.1-4.1v-5
		c0-8.7-6.7-15.9-15.1-16.8v-8.3h44.1c7.4,0,13.3-6,13.3-13.3V58.4C-71.1,51-77.1,45-84.5,45L-84.5,45z M-121.6,175.4v0.9h-60.2
		v-0.9c0-4.9,4-8.8,8.8-8.8h42.5C-125.5,166.6-121.6,170.5-121.6,175.4L-121.6,175.4z M-121.6,175.4"/>
	<path fill="#A59A00" d="M-149.2,62.4c-0.8-0.5-1.7-0.7-2.6-0.7c-0.5,0-0.9,0.1-1.4,0.2c-1.4,0.4-2.5,1.3-3.2,2.5l-6.4,11.2
		c-1.5,2.5-0.6,5.8,1.9,7.2l4.9,2.8c-0.1,0.4-0.1,0.9-0.2,1.3c0.9,0.9,1.8,1.8,2.5,2.9l5.1,8.9c1.6,2.9,2.1,6.2,1.2,9.4
		c-0.6,2.2-1.7,4.1-3.3,5.6c0.7,0.7,1.4,1.5,1.9,2.4l4.5-2.6c2,1.5,4.2,2.9,6.6,3.9v5.5c0,2.9,2.4,5.3,5.3,5.3h12.9
		c2.9,0,5.3-2.4,5.3-5.3v-5.5c2.4-1,4.5-2.4,6.6-3.9l4.8,2.8c0.8,0.5,1.7,0.7,2.7,0.7c0.5,0,0.9-0.1,1.4-0.2
		c1.4-0.4,2.5-1.3,3.2-2.5l6.4-11.2c1.5-2.5,0.6-5.8-1.9-7.2l-4.9-2.8c0.2-1.3,0.4-2.5,0.4-3.8c0-1.3-0.2-2.5-0.4-3.8l4.9-2.8
		c1.2-0.7,2.1-1.9,2.5-3.2c0.4-1.4,0.2-2.8-0.5-4l-6.4-11.1c-1-1.7-2.8-2.7-4.6-2.7c-0.9,0-1.8,0.2-2.6,0.7l-4.8,2.8
		c-2-1.5-4.2-2.9-6.6-3.9v-5.5c0-2.9-2.4-5.3-5.3-5.3h-12.9c-2.9,0-5.3,2.4-5.3,5.3v5.5c-2.4,1-4.5,2.4-6.6,3.9L-149.2,62.4z
		 M-126.1,70.1c10.6,0,19.2,8.6,19.2,19.2c0,10.6-8.6,19.2-19.2,19.2c-10.6,0-19.2-8.6-19.2-19.2C-145.3,78.7-136.7,70.1-126.1,70.1
		L-126.1,70.1z M-126.1,70.1"/>
	<path fill="#A59A00" d="M-175.7,140.3V136c1.9-0.8,3.6-1.9,5.2-3.1l3.8,2.2c0.6,0.4,1.4,0.6,2.1,0.6c0.4,0,0.7-0.1,1.1-0.1
		c1.1-0.3,2-1,2.6-2l5.1-8.9c1.2-2,0.5-4.6-1.5-5.7l-3.9-2.2c0.1-1,0.3-2,0.3-3c0-1-0.2-2-0.3-3l3.9-2.2c1-0.6,1.7-1.5,2-2.6
		c0.3-1.1,0.1-2.2-0.4-3.2l-5.1-8.9c-0.8-1.3-2.2-2.1-3.6-2.1c-0.7,0-1.4,0.2-2.1,0.6l-3.8,2.2c-1.6-1.2-3.3-2.3-5.2-3.1v-4.3
		c0-2.3-1.9-4.2-4.2-4.2h-10.2c-2.3,0-4.2,1.9-4.2,4.2v4.3c-1.9,0.8-3.6,1.9-5.2,3.1l-3.8-2.2c-0.6-0.4-1.4-0.6-2.1-0.6
		c-0.4,0-0.7,0-1.1,0.1c-1.1,0.3-2,1-2.6,2l-5.1,8.9c-1.2,2-0.5,4.6,1.5,5.8l3.9,2.2c-0.1,1-0.3,2-0.3,3c0,1,0.2,2,0.3,3l-3.9,2.2
		c-2,1.2-2.7,3.7-1.5,5.8l5.1,8.9c0.6,1,1.5,1.7,2.6,2c0.4,0.1,0.7,0.1,1.1,0.1c0.7,0,1.5-0.2,2.1-0.6l3.8-2.2
		c1.6,1.2,3.3,2.3,5.2,3.1v4.3c0,2.3,1.9,4.2,4.2,4.2h10.2C-177.6,144.5-175.7,142.6-175.7,140.3L-175.7,140.3z M-196.6,113.7
		c0-6.4,5.2-11.6,11.6-11.6c6.4,0,11.6,5.2,11.6,11.6c0,6.4-5.2,11.6-11.6,11.6C-191.4,125.3-196.6,120.1-196.6,113.7L-196.6,113.7z
		 M-196.6,113.7"/>
</g>
</svg>
