<?xml version="1.0" encoding="utf-8"?>
<!-- Generator: Adobe Illustrator 18.1.1, SVG Export Plug-In . SVG Version: 6.00 Build 0)  -->
<!DOCTYPE svg PUBLIC "-//W3C//DTD SVG 1.1//EN" "http://www.w3.org/Graphics/SVG/1.1/DTD/svg11.dtd">
<svg version="1.1" id="Layer_1" xmlns="http://www.w3.org/2000/svg" xmlns:xlink="http://www.w3.org/1999/xlink" x="0px" y="0px"
	 viewBox="167 338.6 182.1 146.9" enable-background="new 167 338.6 182.1 146.9" xml:space="preserve">
<g>
	<g opacity="0.48">
		<path fill="#00446A" d="M347.9,393.6c-1.5,2.4-4,3.7-6.6,3.7c-1.4,0-2.8-0.4-4.1-1.2l-64.7-40.4L207.7,396
			c-3.6,2.3-8.4,1.2-10.7-2.5c-2.3-3.6-1.2-8.4,2.5-10.7l68.9-43c2.5-1.6,5.7-1.6,8.2,0l68.9,43C349,385.1,350.2,389.9,347.9,393.6z
			 M322.8,397.7l-46.3-28.9c-2.5-1.6-5.7-1.6-8.2,0L222,397.7c-2.3,1.4-3.7,3.9-3.7,6.6v48.2c0,4.3,3.5,7.8,7.8,7.8h25.5
			c4.3,0,7.8-3.5,7.8-7.8v-21.9c0-7.1,5.8-13,13-13c7.1,0,13,5.8,13,13v21.9c0,4.3,3.5,7.8,7.8,7.8h25.5c4.3,0,7.8-3.5,7.8-7.8
			v-48.2C326.5,401.7,325.1,399.2,322.8,397.7z"/>
	</g>
	<g>
		<path fill="#00446A" d="M319.1,418.8c-1.5,2.4-4,3.7-6.6,3.7c-1.4,0-2.8-0.4-4.1-1.2l-64.7-40.4l-64.7,40.4
			c-3.6,2.3-8.4,1.2-10.7-2.5c-2.3-3.6-1.2-8.4,2.5-10.7l68.9-43c2.5-1.6,5.7-1.6,8.2,0l68.9,43
			C320.3,410.4,321.4,415.2,319.1,418.8z M294.1,423l-46.3-28.9c-2.5-1.6-5.7-1.6-8.2,0L193.2,423c-2.3,1.4-3.7,3.9-3.7,6.6v48.2
			c0,4.3,3.5,7.8,7.8,7.8h25.5c4.3,0,7.8-3.5,7.8-7.8v-21.9c0-7.1,5.8-13,13-13c7.1,0,13,5.8,13,13v21.9c0,4.3,3.5,7.8,7.8,7.8h25.5
			c4.3,0,7.8-3.5,7.8-7.8v-48.2C297.7,426.9,296.3,424.4,294.1,423z"/>
	</g>
</g>
</svg>
