<?xml version="1.0" encoding="utf-8"?>
<!-- Generator: Adobe Illustrator 18.1.1, SVG Export Plug-In . SVG Version: 6.00 Build 0)  -->
<!DOCTYPE svg PUBLIC "-//W3C//DTD SVG 1.1//EN" "http://www.w3.org/Graphics/SVG/1.1/DTD/svg11.dtd">
<svg version="1.1" id="Layer_1" xmlns="http://www.w3.org/2000/svg" xmlns:xlink="http://www.w3.org/1999/xlink" x="0px" y="0px"
	 viewBox="-595.6 343.3 121 129.1" enable-background="new -595.6 343.3 121 129.1" xml:space="preserve">
<g>
	<g id="Layer_5_1_">
		<g>
			<path fill="#E31B23" d="M-484.2,378.2h-12.2c-1.4,0-1.5-1.4-1.6-2c-2.2-18.5-18-32.8-37.1-32.8c-19.1,0-34.8,14.3-37.1,32.8
				c-0.1,0.7-0.5,2.1-1.6,2.1H-586c-5.3,0-9.6,4.3-9.6,9.6v75c0,5.3,4.3,9.6,9.6,9.6h101.8c5.3,0,9.6-4.3,9.6-9.6v-75
				C-474.6,382.5-478.9,378.2-484.2,378.2z M-535.1,349.3c15.8,0,28.9,11.7,31,27c0.1,0.6,0.5,1.9-1.4,1.9h-59.2
				c-1.7,0-1.5-1.2-1.5-1.8C-564,361.1-550.9,349.3-535.1,349.3z M-521.6,443.1h-6.4c0,0-1.4,0-1.4,1.1c0,1.7,0,6.7,0,6.7
				c0,3.1-2.5,5.7-5.7,5.7c-3.1,0-5.7-2.5-5.7-5.7c0,0,0-5,0-6.6c0-1.3-1.2-1.2-1.2-1.2h-6.6c-3.1,0-5.7-2.5-5.7-5.7
				c0-3.1,2.5-5.7,5.7-5.7h6.4c0,0,1.4,0.1,1.4-1.3c0-1.6,0-6.5,0-6.5c0-3.1,2.5-5.7,5.7-5.7c3.1,0,5.7,2.5,5.7,5.7c0,0,0,5.2,0,7
				c0,0.9,1.2,0.9,1.2,0.9h6.6c3.1,0,5.7,2.5,5.7,5.7C-515.9,440.5-518.4,443.1-521.6,443.1z M-483.6,403.9h-99.7
				c-1.4,0-2.5-1.1-2.5-2.5s1.1-2.5,2.5-2.5h99.7c1.4,0,2.5,1.1,2.5,2.5S-482.2,403.9-483.6,403.9z"/>
		</g>
	</g>
</g>
</svg>
