<?xml version="1.0" encoding="utf-8"?>
<!-- Generator: Adobe Illustrator 18.1.1, SVG Export Plug-In . SVG Version: 6.00 Build 0)  -->
<!DOCTYPE svg PUBLIC "-//W3C//DTD SVG 1.1//EN" "http://www.w3.org/Graphics/SVG/1.1/DTD/svg11.dtd">
<svg version="1.1" id="Layer_1" xmlns="http://www.w3.org/2000/svg" xmlns:xlink="http://www.w3.org/1999/xlink" x="0px" y="0px"
	 viewBox="635.5 348.7 96.1 152.2" enable-background="new 635.5 348.7 96.1 152.2" xml:space="preserve">
<g>
	<path fill="#E31B23" d="M689.1,348.7l32.4,32.4L678,424.7l-16.3-16.3l-16.1-16.2L689.1,348.7z M689.1,348.7"/>
	<path fill="#E31B23" d="M656.2,412h3.2l17.2,17.2c0.2,0.2,0.4,0.4,0.7,0.5c0.3,0.1,0.5,0.2,0.8,0.2h18.7c1.2,0,2.2-1,2.2-2.2
		c0-1.2-1-2.2-2.2-2.2h-13.5l13.5-13.5h14.2l19,31.3h-92.7L656.2,412z M656.2,412"/>
	<rect x="635.5" y="447.7" fill="#E31B23" width="96.1" height="53.2"/>
</g>
</svg>
