<?xml version="1.0" encoding="utf-8"?>
<!-- Generator: Adobe Illustrator 18.1.1, SVG Export Plug-In . SVG Version: 6.00 Build 0)  -->
<!DOCTYPE svg PUBLIC "-//W3C//DTD SVG 1.1//EN" "http://www.w3.org/Graphics/SVG/1.1/DTD/svg11.dtd">
<svg version="1.1" id="Layer_1" xmlns="http://www.w3.org/2000/svg" xmlns:xlink="http://www.w3.org/1999/xlink" x="0px" y="0px"
	 viewBox="-620 36.1 190.5 128.4" enable-background="new -620 36.1 190.5 128.4" xml:space="preserve">
<g>
	<path fill="#06456A" d="M-435.2,122.2l-12.8-75.1l1.2-0.2v-6.5h-65.8v-4.3h-10.5h-3h-10.5v4.3h-65.8v6.5l1.2,0.2l-12.8,75.1h-5.8
		c0,7.2,11.1,13,24.7,13c13.7,0,24.7-5.8,24.7-13h-5.8l-12.6-73.6l49.5,6.3v92.5h-16.1v7.8h-6.4v9.3h35.6h3h35.6v-9.3h-6.4v-7.8
		H-510V55l49.5-6.3l-12.6,73.6h-5.8c0,7.2,11.1,13,24.7,13c13.7,0,24.7-5.8,24.7-13L-435.2,122.2L-435.2,122.2L-435.2,122.2z
		 M-581.4,122.2H-609l12.7-74.5l2.2,0.3L-581.4,122.2z M-468,122.2l12.7-74.2l2.2-0.3l12.7,74.5L-468,122.2L-468,122.2L-468,122.2z"
		/>
</g>
</svg>
