<?xml version="1.0" encoding="utf-8"?>
<!-- Generator: Adobe Illustrator 18.1.1, SVG Export Plug-In . SVG Version: 6.00 Build 0)  -->
<!DOCTYPE svg PUBLIC "-//W3C//DTD SVG 1.1//EN" "http://www.w3.org/Graphics/SVG/1.1/DTD/svg11.dtd">
<svg version="1.1" id="Layer_1" xmlns="http://www.w3.org/2000/svg" xmlns:xlink="http://www.w3.org/1999/xlink" x="0px" y="0px"
	 viewBox="611 62.6 151 104.3" enable-background="new 611 62.6 151 104.3" xml:space="preserve">
<g>
	<path fill="#7E8083" d="M678.6,128.3c11.8,0,21.3-9.6,21.3-21.3c0-11.8-9.6-21.3-21.3-21.3c-11.8,0-21.3,9.6-21.3,21.3
		C657.2,118.7,666.8,128.3,678.6,128.3L678.6,128.3z M678.6,128.3"/>
	<g>
		<defs>
			<rect id="SVGID_9_" x="621.5" y="62.6" width="103" height="104.3"/>
		</defs>
		<clipPath id="SVGID_2_">
			<use xlink:href="#SVGID_9_"  overflow="visible"/>
		</clipPath>
		<path clip-path="url(#SVGID_2_)" fill="#7E8083" d="M660.4,132.5c-8.2,0-14.9,6.7-14.9,14.9V164c0,1.6,1.3,2.9,2.9,2.9h60.2
			c1.6,0,2.9-1.3,2.9-2.9v-16.2c0.3-0.4,0.5-0.9,0.7-1.4l11.7-30.9c0.4-1,0.6-2.1,0.6-3.2V77.7c0-5.1-4.1-9.1-9.1-9.1
			c-5.1,0-9.1,4.1-9.1,9.1v33l-8.3,21.9H660.4z M660.4,132.5"/>
	</g>
</g>
<g opacity="0.8">
	<path fill="#7E8083" d="M734.1,112.8c9.1,0,16.6-7.4,16.6-16.6c0-9.1-7.4-16.6-16.6-16.6c-9.1,0-16.6,7.4-16.6,16.6
		C717.5,105.3,724.9,112.8,734.1,112.8L734.1,112.8z M734.1,112.8"/>
	<g>
		<defs>
			<rect id="SVGID_13_" x="689.8" y="59.8" width="80.1" height="81.1"/>
		</defs>
		<clipPath id="SVGID_4_">
			<use xlink:href="#SVGID_13_"  overflow="visible"/>
		</clipPath>
		<path clip-path="url(#SVGID_4_)" fill="#7E8083" d="M720,114.2c-6.4,0-11.6,5.2-11.6,11.6v12.9c0,1.2,1,2.2,2.2,2.2h46.8
			c1.2,0,2.2-1,2.2-2.2c0,0,0-9.5,0-12.6c0-7.3-8.1-11.4-10.6-11.9C742,112.8,720,114.2,720,114.2z M720,114.2"/>
	</g>
</g>
<g opacity="0.8">
	<path fill="#7E8083" d="M637.3,108.4c9.1,0,16.6-7.4,16.6-16.6c0-9.1-7.4-16.6-16.6-16.6c-9.1,0-16.6,7.4-16.6,16.6
		C620.7,101,628.2,108.4,637.3,108.4L637.3,108.4z M637.3,108.4"/>
	<g>
		<defs>
			<rect id="SVGID_15_" x="593" y="57.3" width="80.1" height="81.1"/>
		</defs>
		<clipPath id="SVGID_6_">
			<use xlink:href="#SVGID_15_"  overflow="visible"/>
		</clipPath>
		<path clip-path="url(#SVGID_6_)" fill="#7E8083" d="M623.2,111.7c-6.4,0-11.6,5.2-11.6,11.6v12.9c0,1.2,1,2.2,2.2,2.2h46.8
			c1.2,0,2.2-1,2.2-2.2c0,0,0-9.5,0-12.6c0-7.3-8.1-11.4-10.6-11.9C645.2,110.4,623.2,111.7,623.2,111.7z M623.2,111.7"/>
	</g>
</g>
</svg>
