<?xml version="1.0" encoding="utf-8"?>
<!-- Generator: Adobe Illustrator 18.1.1, SVG Export Plug-In . SVG Version: 6.00 Build 0)  -->
<!DOCTYPE svg PUBLIC "-//W3C//DTD SVG 1.1//EN" "http://www.w3.org/Graphics/SVG/1.1/DTD/svg11.dtd">
<svg version="1.1" id="Layer_1" xmlns="http://www.w3.org/2000/svg" xmlns:xlink="http://www.w3.org/1999/xlink" x="0px" y="0px"
	 viewBox="-226 340.2 157.6 130.5" enable-background="new -226 340.2 157.6 130.5" xml:space="preserve">
<g>
	<g>
		<g>
			<path fill="#7E8083" d="M-199.8,427c0-8.7,0-43.7,0-43.7s0-2,1-4.4c-9.1,0-18.5,0-18.5,0s-8.7,0-8.7,8.7v30.6
				c0,8.7,8.7,8.7,8.7,8.7v43.7h26.2v-35C-191,435.7-199.8,435.7-199.8,427z"/>
			<path fill="#7E8083" d="M-199.8,374.5c2.3,0,4.4-0.6,6.2-1.6c0.3-0.2,0.5-0.3,0.8-0.5c3.6-2.3,6.1-6.4,6.1-11
				c0-7.2-5.9-13.1-13.1-13.1c-7.2,0-13.1,5.9-13.1,13.1S-207,374.5-199.8,374.5z"/>
			<path fill="#7E8083" d="M-112.3,378.9h-18.5c1,2.4,1,4.4,1,4.4s0,35,0,43.7c0,8.7-8.7,8.7-8.7,8.7v35h26.2V427c0,0,8.7,0,8.7-8.7
				c0-8.7,0-30.6,0-30.6S-103.6,378.9-112.3,378.9z"/>
			<path fill="#7E8083" d="M-136.9,372.4c0.3,0.2,0.6,0.3,0.8,0.5c1.9,1,4,1.6,6.2,1.6c7.2,0,13.1-5.9,13.1-13.1
				c0-7.2-5.9-13.1-13.1-13.1s-13.1,5.9-13.1,13.1C-142.9,366.1-140.5,370.1-136.9,372.4z"/>
			<circle fill="#7E8083" cx="-164.8" cy="361.4" r="13.1"/>
			<path fill="#7E8083" d="M-138.6,387.7c0,0,0-8.7-8.7-8.7c-2.2,0-35,0-35,0s-8.7,0-8.7,8.7v30.6c0,8.7,8.7,8.7,8.7,8.7v43.7h35
				V427c0,0,8.7,0,8.7-8.7C-138.6,409.5-138.6,387.7-138.6,387.7z"/>
		</g>
	</g>
	<g>
		<g>
			<defs>
				<rect id="SVGID_5_" x="-112.7" y="340.2" width="44.4" height="47.3"/>
			</defs>
			<clipPath id="SVGID_2_">
				<use xlink:href="#SVGID_5_"  overflow="visible"/>
			</clipPath>
			<path clip-path="url(#SVGID_2_)" fill="#7E8083" d="M-107.1,344.1v27.4c13.1,4.5,25.3-4.5,38.3,0v-27.4
				C-81.8,339.6-94,348.6-107.1,344.1L-107.1,344.1z M-92.9,352.2c0.1-0.4,0.2-0.6,0.3-1c0.1,0.4,0.2,0.5,0.3,0.9
				c0.4-0.1,0.6-0.1,1-0.2c-0.3,0.3-0.5,0.5-0.8,0.7c0.1,0.4,0.2,0.5,0.3,0.9c-0.3-0.2-0.5-0.2-0.8-0.4c-0.3,0.3-0.5,0.4-0.8,0.7
				c0.1-0.4,0.2-0.6,0.3-1c-0.3-0.2-0.5-0.3-0.8-0.4C-93.4,352.4-93.2,352.3-92.9,352.2L-92.9,352.2z M-96.1,349.6
				c0.1-0.4,0.2-0.6,0.3-1c0.1,0.4,0.2,0.5,0.3,0.9c0.4-0.1,0.6-0.1,1-0.1c-0.3,0.3-0.5,0.4-0.8,0.7c0.1,0.4,0.2,0.5,0.3,0.9
				c-0.3-0.2-0.5-0.3-0.8-0.5c-0.3,0.3-0.5,0.4-0.8,0.7c0.1-0.4,0.2-0.6,0.3-1c-0.3-0.2-0.5-0.3-0.8-0.5
				C-96.7,349.7-96.5,349.7-96.1,349.6L-96.1,349.6z M-96.1,355.7c0.1-0.4,0.2-0.6,0.3-1c0.1,0.4,0.2,0.5,0.3,0.9
				c0.4,0,0.6-0.1,1-0.1c-0.3,0.3-0.5,0.4-0.8,0.7c0.1,0.4,0.2,0.5,0.3,0.9c-0.3-0.2-0.5-0.3-0.8-0.5c-0.3,0.3-0.5,0.4-0.8,0.7
				c0.1-0.4,0.2-0.6,0.3-1c-0.3-0.2-0.5-0.3-0.8-0.5C-96.7,355.7-96.5,355.7-96.1,355.7L-96.1,355.7z M-98.9,352.9
				c0.1-0.4,0.2-0.6,0.3-0.9c0.1,0.4,0.2,0.6,0.3,0.9c0.4,0,0.6,0,1,0c-0.3,0.3-0.5,0.4-0.8,0.6c0.1,0.4,0.2,0.6,0.3,0.9
				c-0.3-0.2-0.5-0.3-0.8-0.6c-0.3,0.2-0.5,0.4-0.8,0.6c0.1-0.4,0.2-0.6,0.3-0.9c-0.3-0.2-0.5-0.4-0.8-0.6
				C-99.5,352.9-99.3,352.9-98.9,352.9L-98.9,352.9z M-102.4,349.5c0.1-0.4,0.2-0.5,0.3-0.9c0.1,0.4,0.2,0.6,0.3,1
				c0.4,0.1,0.6,0.1,1,0.1c-0.3,0.2-0.5,0.3-0.8,0.5c0.1,0.4,0.2,0.6,0.3,1c-0.3-0.3-0.5-0.4-0.8-0.7c-0.3,0.2-0.5,0.3-0.8,0.4
				c0.1-0.4,0.2-0.5,0.3-0.9c-0.3-0.3-0.5-0.4-0.8-0.7C-103,349.4-102.8,349.4-102.4,349.5L-102.4,349.5z M-102.4,355.6
				c0.1-0.4,0.2-0.5,0.3-0.9c0.1,0.4,0.2,0.6,0.3,1c0.4,0.1,0.6,0.1,1,0.1c-0.3,0.2-0.5,0.3-0.8,0.5c0.1,0.4,0.2,0.6,0.3,1
				c-0.3-0.3-0.5-0.4-0.8-0.7c-0.3,0.2-0.5,0.3-0.8,0.4c0.1-0.4,0.2-0.5,0.3-0.9c-0.3-0.3-0.5-0.4-0.8-0.7
				C-103,355.5-102.8,355.5-102.4,355.6L-102.4,355.6z M-70.8,368.7c-11.8-2.6-22.5,4.2-34.3,1.6v-2.2c11.8,2.6,22.5-4.2,34.3-1.6
				V368.7z M-70.8,364.5c-11.8-2.6-22.5,4.2-34.3,1.6V364c11.8,2.6,22.5-4.2,34.3-1.6V364.5z M-70.8,360.4
				c-11.8-2.6-22.5,4.2-34.3,1.6v-2.1c11.8,2.6,22.5-4.2,34.3-1.6V360.4z M-70.8,356.2c-6.2-1.4-11.4-0.5-17.5,0.9v-2.3
				c6.1-1.4,11.4-2.3,17.5-0.9V356.2z M-70.8,351.9c-6.2-1.4-11.4-0.5-17.5,0.9v-2.1c6.1-1.4,11.4-2.3,17.5-0.9V351.9z M-70.8,347.8
				c-6.2-1.4-11.4-0.5-17.5,0.9v-2.5c6.1-1.4,11.4-2.3,17.5-0.9V347.8z M-70.8,347.8"/>
		</g>
		<path fill="#7E8083" d="M-109.4,340.2h-1.3c-1.1,0-2.1,0.9-2.1,2.1c0,0.8,0.4,1.5,1.1,1.8v43.1h3.3v-43.1c0.6-0.4,1-1,1-1.8
			C-107.3,341.2-108.2,340.2-109.4,340.2L-109.4,340.2z M-109.4,340.2"/>
	</g>
</g>
</svg>
