<!-- Generator: Adobe Illustrator 18.1.1, SVG Export Plug-In  -->
<svg version="1.1"
	 xmlns="http://www.w3.org/2000/svg" xmlns:xlink="http://www.w3.org/1999/xlink" xmlns:a="http://ns.adobe.com/AdobeSVGViewerExtensions/3.0/"
	 x="0px" y="0px" width="611.967px" height="435.007px" viewBox="0 0 611.967 435.007" enable-background="new 0 0 611.967 435.007"
	 xml:space="preserve">
<defs>
</defs>
<g>
	<g>
		<path fill="#7E8083" d="M606.741,101.96c-3.404-40.736-27.693-92.106-77.609-93.942c-139.383-9.371-304.508-11.934-446.416,0
			C38.69,12.952,8.511,66.579,5.221,107.315c-6.962,85.565-6.962,134.257,0,219.823c3.328,40.736,32.742,94.669,77.571,100.33
			c143.59,9.371,307.912,10.71,446.416,0c43.452-7.535,74.243-59.593,77.571-100.33C613.702,241.534,613.702,187.525,606.741,101.96
			z M229.443,325.761V106.397l191.25,109.701L229.443,325.761z"/>
	</g>
</g>
</svg>