<!-- Generator: Adobe Illustrator 18.1.1, SVG Export Plug-In  -->
<svg version="1.1"
	 xmlns="http://www.w3.org/2000/svg" xmlns:xlink="http://www.w3.org/1999/xlink" xmlns:a="http://ns.adobe.com/AdobeSVGViewerExtensions/3.0/"
	 x="0px" y="0px" width="80.18px" height="80.178px" viewBox="0 0 80.18 80.178" enable-background="new 0 0 80.18 80.178"
	 xml:space="preserve">
<defs>
</defs>
<path opacity="0.5" fill="#010002" d="M79.655,77.125l-27.07-27.067c4.725-5.32,7.622-12.296,7.622-19.954
	C60.207,13.504,46.703,0,30.104,0C13.504,0,0,13.504,0,30.104c0,16.599,13.504,30.103,30.104,30.103
	c7.657,0,14.634-2.897,19.954-7.622l27.067,27.07c0.347,0.347,0.807,0.523,1.264,0.523c0.458,0,0.918-0.176,1.265-0.523
	C80.355,78.953,80.355,77.824,79.655,77.125z M30.104,56.63c-14.628,0-26.527-11.899-26.527-26.526s11.9-26.527,26.527-26.527
	c14.626,0,26.526,11.9,26.526,26.527c0,6.671-2.492,12.758-6.572,17.424c-0.788,0.899-1.631,1.741-2.529,2.529
	C42.863,54.138,36.775,56.63,30.104,56.63z"/>
</svg>