<?xml version="1.0" encoding="utf-8"?>
<!-- Generator: Adobe Illustrator 18.1.1, SVG Export Plug-In . SVG Version: 6.00 Build 0)  -->
<!DOCTYPE svg PUBLIC "-//W3C//DTD SVG 1.1 Tiny//EN" "http://www.w3.org/Graphics/SVG/1.1/DTD/svg11-tiny.dtd">
<svg version="1.1" baseProfile="tiny" id="Layer_1" xmlns="http://www.w3.org/2000/svg" xmlns:xlink="http://www.w3.org/1999/xlink"
	 x="0px" y="0px" viewBox="0 0 40.5 31.2" xml:space="preserve">
<g>
	<g>
		<polygon fill="none" points="15,21.3 27.5,14.1 15,7 		"/>
		<path fill="#7E8083" d="M34.6,0.5c-9.1-0.6-19.9-0.8-29.2,0C2.5,0.8,0.6,4.3,0.3,7c-0.5,5.6-0.5,8.8,0,14.4
			c0.2,2.7,2.1,6.2,5.1,6.6c9.4,0.6,20.1,0.7,29.2,0c2.8-0.5,4.8-3.9,5.1-6.6c0.5-5.6,0.5-9.1,0-14.7C39.4,4,37.9,0.6,34.6,0.5z
			 M15,21.3V7l12.5,7.2L15,21.3z"/>
	</g>
</g>
</svg>
