<?xml version="1.0" encoding="utf-8"?>
<!-- Generator: Adobe Illustrator 19.1.0, SVG Export Plug-In . SVG Version: 6.00 Build 0)  -->
<!DOCTYPE svg PUBLIC "-//W3C//DTD SVG 1.1//EN" "http://www.w3.org/Graphics/SVG/1.1/DTD/svg11.dtd">
<svg version="1.1" id="Capa_1" xmlns="http://www.w3.org/2000/svg" xmlns:xlink="http://www.w3.org/1999/xlink" x="0px" y="0px"
	 viewBox="-340 186.4 278 189.6" style="enable-background:new -340 186.4 278 189.6;" xml:space="preserve">
<style type="text/css">
	.st0{fill:#A59A00;}
</style>
<path class="st0" d="M-163.7,270.5c-1.3,5-4.3,6.1-6,6.3c-1,2-3.2,6.1-5.4,8.1c-0.9,0.8-2,1.5-3.4,2.1c-1.8,0.7-3.6,1-5.5,1
	s-3.7-0.4-5.5-1c-1.4-0.5-2.5-1.2-3.4-2.1c-2.2-2.1-4.4-6.1-5.4-8.1c-1.6-0.2-4.7-1.3-6-6.3c-0.7-2.7-0.5-4.8,0.5-6.5
	c0.5-0.7,1-1.2,1.5-1.5c0-0.5,0-1.2,0.1-2c-0.9-1.3-2.2-4.1-0.6-8.7c1.7-4.8,5.5-5.6,7.3-5.6c0.6-1.2,1.8-2.8,3.9-4.3
	c2.4-1.7,5.4-2.6,8.7-2.6c4,0,8,1.4,11.6,4c5.8,4.3,5.3,13.8,5.2,15.5c0.2,1.4,0.3,2.7,0.3,3.6c0.5,0.3,1.1,0.8,1.5,1.5
	C-163.2,265.6-163,267.8-163.7,270.5z M-146.7,307.6v13.5c0,1.1-0.9,1.9-1.9,1.9h-70.7c-1.1,0-1.9-0.9-1.9-1.9v-13.5
	c0-5.5,3.3-10.4,8.5-12.5l16.7-6.7c0.5-0.2,1-0.2,1.5,0s0.8,0.6,1,1.1l4.2,11.6l0.8-2.4l-1.3-3.2c-0.2-0.6-0.2-1.3,0.2-1.8
	s1-0.8,1.6-0.8h8.2c0.6,0,1.2,0.3,1.6,0.8c0.4,0.5,0.4,1.2,0.2,1.8l-1.3,3.2l0.8,2.4l4.2-11.6c0.2-0.5,0.5-0.9,1-1.1
	c0.5-0.2,1-0.2,1.5,0l16.7,6.7C-150,297.1-146.7,302-146.7,307.6z M-156.8,309c0-1.1-0.9-1.9-1.9-1.9h-12.9c-1.1,0-1.9,0.9-1.9,1.9
	v6c0,1.1,0.9,1.9,1.9,1.9h12.9c1.1,0,1.9-0.9,1.9-1.9L-156.8,309L-156.8,309z"/>
<g>
	<path class="st0" d="M-252.3,274.2c2.5,5.9,7.8,9.8,13.7,9.8s11.3-3.9,13.7-9.8c2.5-0.6,4.7-3,5.4-6.2c0.4-1.9,0.3-3.8-0.4-5.4
		c-0.7-1.6-1.9-2.7-3.4-3.2l0.9-0.3c1.5-0.5,2.3-2,1.8-3.4c-0.5-1.5-2-2.3-3.4-1.8l0,0c-0.2-3.7-1.7-7-4.2-9.5v5
		c0,1.1-0.9,2.1-2.1,2.1c-1.1,0-2.1-0.9-2.1-2.1v-7.9c-1.3-0.6-2.7-1-4.1-1.2v6.3c0,1.1-0.9,2.1-2.1,2.1c-1.1,0-2.1-0.9-2.1-2.1
		v-6.3c-1.5,0.2-2.8,0.6-4.1,1.2v7.9c0,1.1-0.9,2.1-2.1,2.1c-1.1,0-2.1-0.9-2.1-2.1v-5c-2.5,2.5-4,5.8-4.2,9.5l0,0
		c-1.4-0.5-3,0.4-3.4,1.8c-0.5,1.5,0.4,3,1.8,3.4l0.9,0.3c-1.5,0.5-2.7,1.6-3.4,3.2c-0.7,1.6-0.9,3.5-0.4,5.4
		C-257,271.2-254.9,273.7-252.3,274.2z M-247.3,261.5c2.9,0.9,5.8,1.3,8.7,1.3s5.9-0.4,8.7-1.3l1-0.3c0.2,0.4,0.3,0.7,0.5,1.1
		c0.2,0.6,0.6,1,1.2,1.2c0.6,0.2,1.2,0.2,1.7-0.1c0.2-0.1,0.5-0.2,0.8-0.2c0.5,0.1,0.9,0.7,1,1c0.3,0.8,0.4,1.9,0.2,2.9
		c-0.4,1.9-1.6,3.2-2.6,3.1c-0.9-0.1-1.9,0.5-2.2,1.4c-1.6,5-5.8,8.3-10.3,8.3c-4.6,0-8.6-3.2-10.3-8.3c-0.3-0.9-1.2-1.4-2.1-1.4
		c-0.1,0-0.1,0-0.2,0c-0.9,0-2.1-1.2-2.5-3.1c-0.2-1-0.2-2.1,0.2-2.9c0.1-0.3,0.5-0.9,1.2-1.1c0.2,0,0.4,0.1,0.6,0.2
		c0.5,0.3,1.2,0.3,1.7,0.1c0.6-0.2,1-0.7,1.2-1.2c0.1-0.4,0.3-0.8,0.5-1.1L-247.3,261.5z"/>
	<path class="st0" d="M-238.6,293c-3.9,0-7.3-1.9-9.7-5h-1.3v14.7h22V288h-1.3C-231.3,291.1-234.7,293-238.6,293z"/>
	<path class="st0" d="M-222.1,289.1v27.1c0,1.5-1.2,2.7-2.7,2.7s-2.7-1.2-2.7-2.7v-7.9h-22v7.9c0,1.5-1.2,2.7-2.7,2.7
		s-2.7-1.2-2.7-2.7v-27.1c-5,2.1-8.6,7-8.6,12.8V323h50.2v-21.1C-213.5,296.1-217.1,291.1-222.1,289.1z"/>
</g>
<g>
	<path class="st0" d="M-91.3,311.1c0-0.6-0.1-1.1-0.2-1.7c0,0-0.3-1.8-0.4-2.1c-0.7-3.1-2.7-5.4-5.3-7.2c-0.5-0.3-1-0.6-1.5-0.9
		c-0.7-0.4-11-3.7-11.3-3.8c0.1,0.4,0.1,0.7,0.1,1.2c1.4,1,5.7,4.6,3.7,11.5c0,0-3-3.6-6.1-4.1c-3,5.1-8,11.7-10.7,13.4
		c-2.7-1.7-7.7-8.2-10.7-13.4c-3.1,0.5-6.1,4.1-6.1,4.1c-1.9-6.8,2.3-10.4,3.7-11.5c0-0.4,0.1-0.8,0.1-1.2
		c-0.3,0.1-10.6,3.5-11.3,3.8c-0.5,0.3-1,0.6-1.5,0.9c-2.6,1.8-4.6,4.1-5.3,7.2c-0.1,0.3-0.4,2.1-0.4,2.1c-0.1,0.5-0.1,1.1-0.2,1.7
		l-0.1,2.9c0,0,0,1.4,0,1.7c0.1,1.8,0.5,3.5,1.8,4.8c1.7,1.8,3.7,2.5,6.1,2.5c7.9,0,15.9,0,23.8,0c7.9,0,15.9,0,23.8,0
		c2.4,0,4.4-0.7,6.1-2.5c1.3-1.4,1.7-3.1,1.8-4.8c0-0.3,0-1.7,0-1.7C-91.2,314-91.3,311.1-91.3,311.1L-91.3,311.1z"/>
	<path class="st0" d="M-141.6,278.7c0.2,0.9,0.4,1.7,0.4,2.5c0,0.3,0,0.5-0.1,0.8c-0.2,0.8-1.8,3.3-2.1,3.7c2.8,3,6.5,3.7,10.2,4.5
		c1.1,0.2,2.2,0.4,3.4,0.5c0.4,0.1,0.8,0.1,1.1,0.2l-1.9,5.4c0,0-0.1,7.9,7.6,12.7l0,0c7.7-4.8,7.6-12.7,7.6-12.7l-1.9-5.4
		c0.4-0.1,0.8-0.1,1.1-0.2c1.2-0.2,2.3-0.3,3.4-0.5c3.7-0.8,7.4-1.5,10.2-4.5c-0.3-0.4-1.8-3-2.1-3.7c0-0.3-0.1-0.5-0.1-0.8
		c0-0.8,0.2-1.6,0.4-2.5c0.2-0.8,0.5-1.7,0.8-2.5c1.2-2.8,1.9-5.8,1.9-9c0-12-9.5-21.7-21.4-21.9l0,0l0,0l0,0l0,0
		c-11.8,0.2-21.4,10-21.4,21.9c0,3.2,0.7,6.3,1.9,9C-142.2,277-141.9,277.8-141.6,278.7L-141.6,278.7z"/>
</g>
<g>
	<g id="Layer_2_6_">
		<g>
			<path class="st0" d="M-272,299.4c-2.7-1-7.4-3.8-8.2-4.2c-0.2-0.1-0.4-0.2-0.7-0.2c-0.6,0-1,0.3-1.3,0.8
				c-2.2,3.7-6.3,14.5-9.2,14.7c-2.9-0.2-7-11-9.2-14.7c-0.2-0.5-0.7-0.8-1.3-0.8c-0.3,0-0.5,0.1-0.7,0.2c-0.8,0.4-5.5,3.2-8.2,4.2
				c-9,3.2-13.1,6.6-13.1,8.8c0,2.3,0,14.8,0,14.8h32.4h32.4c0,0,0-12.5,0-14.8C-259,305.9-263,302.6-272,299.4z"/>
			<path class="st0" d="M-314.2,289c0.5,0.3,5.4,0.6,12.8,0.7c2.7,1.8,6.2,2.8,10.1,2.8l0,0l0,0c3.9,0,7.4-1.1,10.1-2.8
				c7.5-0.1,12.4-0.3,12.8-0.7c2.2-1.5-4.4-1.4-4.4-21.1c0-1.5-0.2-3-0.5-4.4c0.8-0.5,1.2-1.4,1.1-2.4l-0.8-7.7
				c-0.2-2.4-1.8-4.5-4-5.5c-4.5-2-9.3-3.2-14.3-3.2l0,0l0,0c-5,0-9.8,1.2-14.3,3.2c-2.2,1-3.7,3.1-4,5.5l-0.8,7.7
				c-0.1,0.9,0.3,1.8,1.1,2.4c-0.3,1.4-0.5,2.9-0.5,4.4C-309.9,287.7-316.4,287.5-314.2,289z M-295.6,251.4c0-0.5,0.4-1,1-1h1.8
				v-1.8c0-0.5,0.4-1,1-1h1c0.5,0,1,0.4,1,1v1.8h1.8c0.5,0,1,0.4,1,1v1c0,0.5-0.4,1-1,1h-1.8v1.8c0,0.5-0.4,1-1,1h-1
				c-0.5,0-1-0.4-1-1v-1.8h-1.8c-0.5,0-1-0.4-1-1V251.4z"/>
		</g>
	</g>
</g>
</svg>
