<?xml version="1.0" encoding="utf-8"?>
<!-- Generator: Adobe Illustrator 19.1.0, SVG Export Plug-In . SVG Version: 6.00 Build 0)  -->
<!DOCTYPE svg PUBLIC "-//W3C//DTD SVG 1.1//EN" "http://www.w3.org/Graphics/SVG/1.1/DTD/svg11.dtd">
<svg version="1.1" xmlns="http://www.w3.org/2000/svg" xmlns:xlink="http://www.w3.org/1999/xlink" x="0px" y="0px"
	 viewBox="0 0 1260 800" style="enable-background:new 0 0 1260 800;" xml:space="preserve">
<style type="text/css">
	.st0{fill:#E21B23;}
	.st1{fill:#7E8081;}
	.st2{fill:none;}
	.st3{font-family:'OpenSans-Light';}
	.st4{font-size:38px;}
</style>
<g id="Background">
</g>
<g id="Objects">
	<g>
		<path class="st0" d="M549.4,314.4l-31.9-41.8v41.8h-22.4v-81.2h19.8l30.7,40.3v-40.3H568v78.2v3H549.4L549.4,314.4z"/>
		<g>
			<path class="st0" d="M615.1,315.7c-11.8,0-22.3-4.6-29.7-12.1l0,0c-7.4-7.5-11.9-18-11.9-29.5l0,0l0-0.2
				c0-11.4,4.3-21.9,11.8-29.6l0,0c7.5-7.6,18.1-12.3,30.4-12.3l0,0c14.8-0.1,24.4,5.2,31.8,12.5l0,0l2,2L635.1,263l-2.3-2.1
				c-5.6-5-10.6-7.7-17.2-7.7l0,0c-10.9,0-18.7,8.9-18.8,20.4l0,0l0,0.2c0.1,11.5,7.7,20.6,18.8,20.6l0,0c7.7-0.1,11.9-2.8,17.7-8
				l0,0l2.1-2l12.6,12.7l0,0l2,2.1l-2,2.1c-7.9,8.6-17.7,14.4-32.7,14.4l0,0C615.3,315.7,615.2,315.7,615.1,315.7L615.1,315.7z"/>
		</g>
		<path class="st0" d="M655.1,314.4v-81.2h22.6v60.1h37.5v18.1v3H655.1L655.1,314.4z"/>
		<g>
			<path class="st0" d="M767.7,314.4l-16.1-24.1h-8.3v24.1h-22.6v-81.2H758c9.4,0,17.2,2.5,22.8,7.4l0,0c5.6,4.9,8.6,12.1,8.6,20.5
				l0,0l0,0.2c0.1,11.8-5.9,20.2-14.6,24.6l0,0l19.5,28.5H767.7L767.7,314.4z M743.2,269.7h13.7c3.5,0,5.9-0.9,7.4-2.2l0,0
				c1.5-1.3,2.2-3,2.3-5.4l0,0v-0.2c0-2.9-0.9-4.4-2.3-5.7l0,0c-1.5-1.2-4-2-7.6-2l0,0h-13.4V269.7L743.2,269.7z"/>
		</g>
		<g>
			<path class="st1" d="M506.3,326.8v22.4h-3.2l-4.1-12.8l-0.8-3.2H498l0.5,9.1v6.9h-3.2v-22.4h3.2l4.1,12.8l0.7,3.2h0.2l-0.6-9.1
				v-6.8H506.3z"/>
			<path class="st1" d="M512.4,349.2H509l4-19.2h3.5l4,19.2h-3.3l-0.5-3.5c0,0-3.8,0-3.8,0L512.4,349.2z M515.2,336.7l-0.3-2.3h-0.2
				l-0.3,2.3l-1.1,6.1h3L515.2,336.7z"/>
			<path class="st1" d="M530.5,330v2.9h-3.2v16.3h-3.2v-16.3h-3.2V330H530.5z"/>
			<path class="st1" d="M533.2,349.2V330h3.2v19.2H533.2z"/>
			<path class="st1" d="M550.5,346c0,1.8-1.4,3.2-3.2,3.2h-3.5c-1.8,0-3.2-1.4-3.2-3.2v-12.8c0-1.8,1.4-3.2,3.2-3.2h3.5
				c1.8,0,3.2,1.4,3.2,3.2V346z M546.5,332.9h-1.9c-0.4,0-0.8,0.4-0.8,0.8v11.8c0,0.4,0.4,0.8,0.8,0.8h1.9c0.4,0,0.8-0.4,0.8-0.8
				v-11.8C547.3,333.3,546.9,332.9,546.5,332.9z"/>
			<path class="st1" d="M565.6,330v19.2h-3.4l-4.1-11.2l-0.8-3.2h-0.2l0.5,9.1v5.3h-3V330h3.4l4.1,11.2l0.7,3.2h0.2l-0.6-9.1V330
				H565.6z"/>
			<path class="st1" d="M571.6,349.2h-3.3l4-19.2h3.5l4,19.2h-3.3l-0.5-3.5c0,0-3.8,0-3.8,0L571.6,349.2z M574.5,336.7l-0.3-2.3
				h-0.2l-0.3,2.3l-1.1,6.1h3L574.5,336.7z"/>
			<path class="st1" d="M590.5,346.3v2.9h-8V330h3.2v16.3H590.5z"/>
			<path class="st1" d="M607.6,346c0,1.8-1.4,3.2-3.2,3.2h-3.5c-1.8,0-3.2-1.4-3.2-3.2v-16c0-1.8,1.4-3.2,3.2-3.2h3.5
				c1.8,0,3.2,1.4,3.2,3.2v3.2h-3.2v-2.7c0-0.4-0.4-0.8-0.8-0.8h-1.9c-0.4,0-0.8,0.4-0.8,0.8v15c0,0.4,0.4,0.8,0.8,0.8h1.9
				c0.4,0,0.8-0.4,0.8-0.8v-2.7h3.2V346z"/>
			<path class="st1" d="M620.6,346c0,1.8-1.4,3.2-3.2,3.2h-3.5c-1.8,0-3.2-1.4-3.2-3.2v-12.8c0-1.8,1.4-3.2,3.2-3.2h3.5
				c1.8,0,3.2,1.4,3.2,3.2V346z M616.6,332.9h-1.9c-0.4,0-0.8,0.4-0.8,0.8v11.8c0,0.4,0.4,0.8,0.8,0.8h1.9c0.4,0,0.8-0.4,0.8-0.8
				v-11.8C617.4,333.3,617,332.9,616.6,332.9z"/>
			<path class="st1" d="M634.5,346c0,1.8-1.4,3.2-3.2,3.2h-3.5c-1.8,0-3.2-1.4-3.2-3.2v-16h3.2v15.5c0,0.4,0.4,0.8,0.8,0.8h1.9
				c0.4,0,0.8-0.4,0.8-0.8V330h3.2V346z"/>
			<path class="st1" d="M649.9,330v19.2h-3.4l-4.1-11.2l-0.8-3.2h-0.2l0.5,9.1v5.3h-3V330h3.4l4.1,11.2l0.7,3.2h0.2l-0.6-9.1V330
				H649.9z"/>
			<path class="st1" d="M664,346c0,1.8-1.4,3.2-3.2,3.2h-3.5c-1.8,0-3.2-1.4-3.2-3.2v-12.8c0-1.8,1.4-3.2,3.2-3.2h3.5
				c1.8,0,3.2,1.4,3.2,3.2v2.4h-3.2v-1.9c0-0.4-0.4-0.8-0.8-0.8H658c-0.4,0-0.8,0.4-0.8,0.8v11.8c0,0.4,0.4,0.8,0.8,0.8h1.9
				c0.4,0,0.8-0.4,0.8-0.8v-1.9h3.2V346z"/>
			<path class="st1" d="M667.2,349.2V330h3.2v19.2H667.2z"/>
			<path class="st1" d="M683,346.3v2.9h-8V330h3.2v16.3H683z"/>
			<path class="st1" d="M700,346c0,1.8-1.4,3.2-3.2,3.2h-3.5c-1.8,0-3.2-1.4-3.2-3.2v-12.8c0-1.8,1.4-3.2,3.2-3.2h3.5
				c1.8,0,3.2,1.4,3.2,3.2V346z M696,332.9h-1.9c-0.4,0-0.8,0.4-0.8,0.8v11.8c0,0.4,0.4,0.8,0.8,0.8h1.9c0.4,0,0.8-0.4,0.8-0.8
				v-11.8C696.8,333.3,696.5,332.9,696,332.9z"/>
			<path class="st1" d="M712.2,330v2.9h-4.8v5h3.9v2.9h-3.9v8.5h-3.2V330H712.2z"/>
			<path class="st1" d="M728.1,346.3v2.9h-8v-22.4h3.2v19.5H728.1z"/>
			<path class="st1" d="M733,349.2h-3.3l4-19.2h3.5l4,19.2h-3.3l-0.5-3.5c0,0-3.8,0-3.8,0L733,349.2z M735.8,336.7l-0.3-2.3h-0.2
				l-0.3,2.3l-1.1,6.1h3L735.8,336.7z"/>
			<path class="st1" d="M752.1,339.1v10.1h-3.2v-22.4h6.7c1.8,0,3.2,1.4,3.2,3.2v5.4c0,1.6-1,2.6-2.1,2.9l3,10.8h-3.4l-2.7-10.1
				H752.1z M755.6,335.5v-5c0-0.4-0.4-0.8-0.8-0.8h-2.7v6.6h2.7C755.2,336.3,755.6,335.9,755.6,335.5z"/>
			<path class="st1" d="M764.7,349.2h-3.3l4-19.2h3.5l4,19.2h-3.3l-0.5-3.5c0,0-3.8,0-3.8,0L764.7,349.2z M767.5,336.7l-0.3-2.3H767
				l-0.3,2.3l-1.1,6.1h3L767.5,336.7z"/>
			<path class="st1" d="M783.9,330v2.7l-6.4,13.6h6.4v2.9h-9.6v-2.7l6.4-13.6h-6.4V330H783.9z"/>
			<path class="st1" d="M788.8,349.2h-3.3l4-19.2h3.5l4,19.2h-3.3l-0.5-3.5c0,0-3.8,0-3.8,0L788.8,349.2z M791.6,336.7l-0.3-2.3
				h-0.2l-0.3,2.3l-1.1,6.1h3L791.6,336.7z"/>
		</g>
	</g>
	<rect x="108" y="429.3" class="st2" width="1060" height="212"/>
	<text transform="matrix(1 0 0 1 191.6699 458.1905)" class="st3 st4">Check back soon for our new and improved website! </text>
</g>
</svg>
