<!-- Generator: Adobe Illustrator 18.1.1, SVG Export Plug-In  -->
<svg version="1.1"
	 xmlns="http://www.w3.org/2000/svg" xmlns:xlink="http://www.w3.org/1999/xlink" xmlns:a="http://ns.adobe.com/AdobeSVGViewerExtensions/3.0/"
	 x="0px" y="0px" width="356.952px" height="360px" viewBox="0 0 356.952 360" enable-background="new 0 0 356.952 360"
	 xml:space="preserve">
<defs>
</defs>
<path fill="#FFFFFF" d="M291.313,228.803c-20.842,0-39.226,9.929-51.237,25.135l-111.403-56.971
	c1.458-5.44,2.507-11.06,2.507-16.975c0-6.439-1.245-12.502-2.982-18.401l110.912-56.709c11.945,15.894,30.804,26.282,52.22,26.282
	c36.277,0,65.623-29.346,65.623-65.59C356.952,29.362,327.606,0,291.329,0c-36.195,0-65.574,29.362-65.574,65.574
	c0,5.931,1.049,11.568,2.523,17.024l-111.387,56.971c-12.027-15.222-30.444-25.184-51.319-25.184C29.33,114.385,0,143.764,0,179.992
	s29.33,65.59,65.574,65.59c21.448,0,40.291-10.421,52.285-26.331l110.863,56.709c-1.737,5.882-2.998,11.994-2.998,18.45
	c0,36.228,29.379,65.59,65.574,65.59c36.277,0,65.623-29.362,65.623-65.59C356.936,258.149,327.59,228.803,291.313,228.803z"/>
</svg>